<svg xmlns="http://www.w3.org/2000/svg" aria-hidden="true" style="width:0;height:0;position:absolute;overflow:hidden"><defs><symbol id="icon-facebook" viewBox="0 0 30 32"><path fill="#fff" d="M30 16c0-8.155-6.607-14.762-14.762-14.762S.476 7.845.476 16c0 7.381 5.357 13.512 12.44 14.583V20.285h-3.75v-4.286h3.75v-3.214c0-3.69 2.202-5.774 5.536-5.774 1.667 0 3.333.298 3.333.298v3.631H19.94c-1.845 0-2.44 1.131-2.44 2.321v2.738h4.107l-.655 4.286H17.5v10.298C24.583 29.512 30 23.381 30 16z" style="fill:var(--color1,#fff)"/></symbol><symbol id="icon-instagram" viewBox="0 0 30 32"><path fill="#fff" d="M15.158 8.434c-4.211 0-7.566 3.421-7.566 7.566a7.525 7.525 0 0 0 7.566 7.566c4.145 0 7.566-3.355 7.566-7.566 0-4.145-3.421-7.566-7.566-7.566zm0 12.5A4.928 4.928 0 0 1 10.224 16c0-2.697 2.171-4.868 4.934-4.868A4.857 4.857 0 0 1 20.026 16c0 2.763-2.171 4.934-4.868 4.934zm9.605-12.763c0 .987-.789 1.776-1.776 1.776s-1.776-.789-1.776-1.776.789-1.776 1.776-1.776 1.776.789 1.776 1.776zm5 1.776c-.132-2.368-.658-4.474-2.369-6.184s-3.816-2.237-6.184-2.368c-2.434-.132-9.737-.132-12.171 0-2.368.132-4.408.658-6.184 2.368C1.144 5.474.618 7.579.487 9.947c-.132 2.434-.132 9.737 0 12.171.132 2.369.658 4.408 2.368 6.184 1.776 1.71 3.816 2.237 6.184 2.368 2.434.132 9.737.132 12.171 0 2.368-.132 4.474-.658 6.184-2.368 1.71-1.776 2.237-3.816 2.369-6.184.132-2.434.132-9.737 0-12.171zm-3.158 14.737c-.461 1.316-1.513 2.303-2.763 2.829-1.974.79-6.579.592-8.684.592-2.171 0-6.776.197-8.684-.592a4.985 4.985 0 0 1-2.829-2.829c-.789-1.908-.592-6.513-.592-8.684 0-2.105-.197-6.711.592-8.684a5.072 5.072 0 0 1 2.829-2.763c1.908-.789 6.513-.592 8.684-.592 2.105 0 6.711-.197 8.684.592 1.25.461 2.237 1.513 2.763 2.763.789 1.974.592 6.579.592 8.684 0 2.171.197 6.776-.592 8.684z" style="fill:var(--color1,#fff)"/></symbol><symbol id="icon-message" viewBox="0 0 30 32"><path fill="#fff" d="M25.421 5.605a14.372 14.372 0 0 0-10.329-4.342C7.066 1.263.487 7.842.487 15.868c0 2.632.724 5.132 1.974 7.303L.422 30.737l7.697-1.974c2.171 1.118 4.539 1.776 6.974 1.776 8.092 0 14.803-6.579 14.803-14.605 0-3.947-1.71-7.566-4.474-10.329zM15.092 28.039c-2.171 0-4.276-.592-6.184-1.71l-.395-.263-4.605 1.25 1.25-4.474-.329-.46c-1.184-1.974-1.842-4.211-1.842-6.513 0-6.645 5.461-12.105 12.171-12.105 3.224 0 6.25 1.25 8.553 3.553s3.684 5.329 3.684 8.618c0 6.645-5.592 12.105-12.303 12.105zm6.711-9.079c-.395-.197-2.171-1.053-2.5-1.184s-.592-.197-.855.197c-.197.329-.921 1.184-1.118 1.447-.263.197-.461.263-.79.066-2.171-1.053-3.553-1.908-5-4.342-.395-.658.395-.592 1.053-1.974.132-.263.066-.46 0-.658s-.855-1.974-1.118-2.697c-.329-.724-.592-.658-.855-.658h-.658c-.263 0-.658.066-.987.461s-1.25 1.25-1.25 3.026c0 1.842 1.25 3.553 1.447 3.816.197.197 2.566 3.882 6.25 5.46 2.303 1.053 3.224 1.118 4.408.921.658-.066 2.105-.855 2.434-1.71s.329-1.579.197-1.711c-.066-.197-.329-.263-.658-.46z" style="fill:var(--color1,#fff)"/></symbol><symbol id="icon-phone" viewBox="0 0 27 32"><path d="M7.849 30.441c.178.237.414.296.711.296.178 0 .355 0 .533-.118l3.849-2.428a.946.946 0 0 0 .474-.829c0-.118 0-.296-.059-.414l-1.954-4.796c-.118-.355-.474-.592-.947-.592h-.059l-3.316.296c-1.243-3.375-1.243-7.165 0-10.599l3.316.296h.059c.474 0 .829-.237.947-.592l1.954-4.796c.059-.118.059-.296.059-.414a.946.946 0 0 0-.474-.829L9.093 2.494c-.414-.237-.888-.178-1.243.178-7.697 7.638-7.697 20.132 0 27.77zM16.73 6.105c-.237-.414-.77-.474-1.125-.178l-.355.355a.717.717 0 0 0-.118.888c.118.237.178.533.178.888 0 .296-.059.592-.178.829a.718.718 0 0 0 .118.888l.355.355c.355.296.888.237 1.125-.178a4.037 4.037 0 0 0 0-3.849zM22.118.717c-.237-.355-.711-.355-1.006-.059l-.355.296c-.237.296-.296.711-.059 1.007a9.406 9.406 0 0 1 0 12.138c-.237.296-.178.711.059 1.007l.355.296c.296.296.77.296 1.006-.059a11.224 11.224 0 0 0 0-14.625zm-2.723 2.665c-.237-.355-.71-.414-1.006-.118l-.355.355c-.296.237-.296.651-.118.947a5.602 5.602 0 0 1 0 6.928c-.178.296-.178.711.118.947l.355.355c.296.296.77.237 1.006-.118 2.191-2.724 2.132-6.572 0-9.296z"/></symbol><symbol id="icon-phone2" viewBox="0 0 32 32"><path d="M28.19 31.988h.204A3.61 3.61 0 0 0 32 28.382v-6.346a2.402 2.402 0 0 0-1.479-2.236l-4.531-1.815a2.4 2.4 0 0 0-2.608.493l-2.608 2.584a11.25 11.25 0 0 1-9.111-9.134l2.56-2.584a2.4 2.4 0 0 0 .528-2.596l-1.827-4.495A2.402 2.402 0 0 0 10.689.738H4.355A3.604 3.604 0 0 0 .749 4.62c.469 6.082 3.822 26.009 27.439 27.367zM3.896 3.233a1.19 1.19 0 0 1 .46-.09h6.346l1.803 4.531-3.413 3.449.072.577c0 .108 1.418 10.564 11.875 11.875l.577.072 3.449-3.425 4.531 1.815v6.346l-.002.075a1.202 1.202 0 0 1-1.271 1.127C7.254 28.383 3.708 11.557 3.156 4.442c-.002-.033-.004-.066-.004-.1a1.193 1.193 0 0 1 .355-.849c.112-.111.245-.199.391-.259zm26.902 9.525h-2.404a8.42 8.42 0 0 0-8.413-8.413V1.941a10.827 10.827 0 0 1 10.817 10.817zm-4.807 0h-2.404a3.61 3.61 0 0 0-3.606-3.606V6.748a6.018 6.018 0 0 1 6.009 6.009z"/></symbol><symbol id="icon-post" viewBox="0 0 30 32"><path d="M10.421 13.211h9.474c.474 0 .947-.414.947-.947v-.947c0-.474-.474-.947-.947-.947h-9.474c-.533 0-.947.474-.947.947v.947c0 .533.414.947.947.947zm-.947 4.736c0 .533.414.948.947.948h9.474c.474 0 .947-.414.947-.948V17c0-.474-.474-.947-.947-.947h-9.474c-.533 0-.947.474-.947.947v.947zm5.684 7.224c-1.007 0-1.954-.296-2.783-.947L0 15.283v12.612a2.805 2.805 0 0 0 2.842 2.842h24.632a2.842 2.842 0 0 0 2.842-2.842V15.283l-12.434 8.941a4.359 4.359 0 0 1-2.724.947zm14.033-15.099c-.533-.355-1.006-.77-1.717-1.303V6.105c0-1.539-1.303-2.842-2.842-2.842h-4.618l-.533-.355C18.475 2.197 16.52.421 15.159.421c-1.421 0-3.375 1.776-4.382 2.487l-.533.355H5.685a2.843 2.843 0 0 0-2.842 2.842v2.664c-.77.533-1.243.947-1.776 1.303a2.93 2.93 0 0 0-1.066 2.25v.651l5.684 4.086V6.105h18.947v10.954l5.684-4.086v-.651c0-.888-.414-1.658-1.125-2.25z"/></symbol><symbol id="icon-tik-tok" viewBox="0 0 26 32"><path fill="#fff" d="M26.087 12.109c-2.446.054-4.728-.707-6.685-2.12v9.728c0 6.793-7.391 11.033-13.261 7.663-5.87-3.424-5.87-11.902 0-15.326 1.685-.978 3.696-1.359 5.652-1.087v4.891c-2.989-.978-5.87 1.685-5.217 4.728.707 3.043 4.402 4.239 6.739 2.119a4.112 4.112 0 0 0 1.304-2.989V.694h4.783c0 .435 0 .815.109 1.25.326 1.793 1.359 3.37 2.935 4.348 1.033.707 2.337 1.087 3.641 1.087v4.728z" style="fill:var(--color1,#fff)"/></symbol><symbol id="icon-location" viewBox="0 0 32 32"><path d="M16 0C10.477 0 6 4.477 6 10c0 10 10 22 10 22s10-12 10-22c0-5.523-4.477-10-10-10zm0 16.125a6.125 6.125 0 1 1 0-12.25 6.125 6.125 0 0 1 0 12.25zM12.125 10a3.875 3.875 0 1 1 7.75 0 3.875 3.875 0 0 1-7.75 0z"/></symbol></defs></svg>