<svg width="22" height="22" viewBox="0 0 22 22" fill="none" xmlns="http://www.w3.org/2000/svg">
<path fill-rule="evenodd" clip-rule="evenodd" d="M19.3806 21.9919H19.5211C20.1785 21.9919 20.809 21.7308 21.2739 21.2659C21.7388 20.801 21.9999 20.1705 21.9999 19.513V15.1502C22.0023 14.8221 21.9068 14.5007 21.7258 14.227C21.5448 13.9533 21.2865 13.7396 20.9836 13.6133L17.8685 12.3656C17.5694 12.2398 17.2398 12.2048 16.921 12.2651C16.6021 12.3253 16.308 12.4781 16.0754 12.7044L14.2824 14.4809C12.7203 14.203 11.2815 13.4514 10.1611 12.328C9.04068 11.2047 8.29287 9.76388 8.01907 8.20109L9.77907 6.42456C10.0079 6.19541 10.1643 5.90408 10.2289 5.58678C10.2936 5.26947 10.2636 4.94016 10.1426 4.63977L8.88667 1.54943C8.76421 1.24194 8.55224 0.978309 8.27822 0.792681C8.0042 0.607052 7.68075 0.507982 7.34977 0.508302H2.9952C2.9291 0.508302 2.86327 0.510781 2.79772 0.515739C2.14227 0.566179 1.53369 0.874912 1.10585 1.37403C0.678017 1.87315 0.465959 2.52177 0.516325 3.17723C0.838579 7.35827 3.14394 21.0582 19.3806 21.9919ZM2.67881 2.22284C2.77918 2.18161 2.88669 2.16056 2.9952 2.16089H7.35803L8.59747 5.27601L6.2508 7.64748L6.30038 8.0441C6.30038 8.11846 7.2754 15.3072 14.4642 16.2079L14.8608 16.2575L17.2322 13.9025L20.3474 15.1502V19.513L20.3457 19.5643C20.3325 19.783 20.233 19.9875 20.0691 20.1328C19.9051 20.2782 19.6902 20.3524 19.4715 20.3393C4.98657 19.513 2.54901 7.94494 2.16891 3.05329C2.16726 3.0307 2.16643 3.00784 2.16643 2.9847C2.16676 2.87619 2.18845 2.76881 2.23028 2.66868C2.2721 2.56856 2.33324 2.47765 2.4102 2.40115C2.48716 2.32465 2.57843 2.26406 2.67881 2.22284ZM21.1736 8.77097H19.521C19.5193 7.23748 18.9093 5.7673 17.825 4.68296C16.7407 3.59862 15.2705 2.98867 13.737 2.98692V1.33433C15.7086 1.33652 17.5989 2.12072 18.9931 3.51489C20.3872 4.90905 21.1714 6.79932 21.1736 8.77097ZM17.8685 8.77115H16.2159C16.2152 8.11391 15.9538 7.48378 15.4891 7.01904C15.0244 6.55431 14.3942 6.29293 13.737 6.29227V4.63969C14.8323 4.641 15.8824 5.0767 16.6569 5.85121C17.4315 6.62573 17.8672 7.67582 17.8685 8.77115Z" fill="white"/>
</svg>
