<svg width="18" height="19" viewBox="0 0 18 19" fill="none" xmlns="http://www.w3.org/2000/svg">
<path d="M6.1875 7.84375H11.8125C12.0938 7.84375 12.375 7.59766 12.375 7.28125V6.71875C12.375 6.4375 12.0938 6.15625 11.8125 6.15625H6.1875C5.87109 6.15625 5.625 6.4375 5.625 6.71875V7.28125C5.625 7.59766 5.87109 7.84375 6.1875 7.84375ZM5.625 10.6562C5.625 10.9727 5.87109 11.2188 6.1875 11.2188H11.8125C12.0938 11.2188 12.375 10.9727 12.375 10.6562V10.0938C12.375 9.8125 12.0938 9.53125 11.8125 9.53125H6.1875C5.87109 9.53125 5.625 9.8125 5.625 10.0938V10.6562ZM9 14.9453C8.40234 14.9453 7.83984 14.7695 7.34766 14.3828L0 9.07422V16.5625C0 17.5117 0.738281 18.25 1.6875 18.25H16.3125C17.2266 18.25 18 17.5117 18 16.5625V9.07422L10.6172 14.3828C10.125 14.7695 9.5625 14.9453 9 14.9453ZM17.332 5.98047C17.0156 5.76953 16.7344 5.52344 16.3125 5.20703V3.625C16.3125 2.71094 15.5391 1.9375 14.625 1.9375H11.8828C11.7773 1.86719 11.6719 1.79688 11.5664 1.72656C10.9688 1.30469 9.80859 0.25 9 0.25C8.15625 0.25 6.99609 1.30469 6.39844 1.72656C6.29297 1.79688 6.1875 1.86719 6.08203 1.9375H3.375C2.42578 1.9375 1.6875 2.71094 1.6875 3.625V5.20703C1.23047 5.52344 0.949219 5.76953 0.632812 5.98047C0.246094 6.29688 0 6.78906 0 7.31641V7.70312L3.375 10.1289V3.625H14.625V10.1289L18 7.70312V7.31641C18 6.78906 17.7539 6.33203 17.332 5.98047Z" fill="white"/>
</svg>
