<?xml version="1.0" standalone="no"?>
<!DOCTYPE svg PUBLIC "-//W3C//DTD SVG 20010904//EN"
 "http://www.w3.org/TR/2001/REC-SVG-20010904/DTD/svg10.dtd">
<svg version="1.0" xmlns="http://www.w3.org/2000/svg"
 width="995.000000pt" height="995.000000pt" viewBox="0 0 995.000000 995.000000"
 preserveAspectRatio="xMidYMid meet">
<metadata>
Created by potrace 1.14, written by Peter Selinger 2001-2017
</metadata>
<g transform="translate(0.000000,995.000000) scale(0.100000,-0.100000)"
fill="#000000" stroke="none">
<path d="M5348 8744 c-2 -1 -48 -5 -103 -8 -55 -4 -113 -9 -129 -12 -15 -2
-47 -7 -70 -9 -64 -7 -115 -15 -191 -30 -38 -8 -83 -16 -100 -19 -91 -16 -379
-98 -387 -110 -4 -6 -8 -8 -8 -4 0 4 -30 -4 -67 -18 -38 -14 -72 -26 -78 -28
-52 -15 -245 -102 -360 -161 -149 -77 -293 -159 -330 -188 -5 -4 -41 -28 -80
-53 -38 -25 -74 -51 -80 -57 -5 -7 -29 -25 -53 -40 -42 -27 -198 -155 -276
-226 -173 -159 -373 -382 -501 -561 -22 -30 -42 -57 -45 -60 -3 -3 -21 -30
-40 -60 -19 -30 -38 -56 -42 -58 -5 -2 -8 -7 -8 -11 0 -5 -24 -48 -54 -97 -29
-49 -71 -123 -92 -164 -21 -41 -42 -77 -47 -78 -4 -2 -5 -8 -2 -12 9 -14 -25
-27 -90 -35 -33 -4 -69 -9 -80 -10 -122 -17 -381 -85 -515 -134 -47 -18 -89
-33 -95 -35 -17 -5 -48 -18 -103 -42 -29 -13 -55 -24 -57 -24 -6 0 -204 -99
-245 -122 -14 -7 -52 -31 -85 -52 -204 -132 -375 -311 -481 -506 -10 -19 -22
-37 -25 -40 -16 -13 -81 -200 -95 -273 -17 -91 -23 -347 -10 -437 4 -25 8 -61
11 -80 16 -153 93 -460 137 -548 43 -86 120 -119 165 -69 39 43 6 108 -68 134
-57 21 -53 12 -79 168 -5 33 -12 71 -15 84 -22 114 -22 381 1 492 2 13 7 40
10 59 23 144 147 396 264 535 86 103 267 262 365 322 168 102 355 188 559 258
75 25 144 48 153 50 10 2 56 13 103 25 47 12 94 24 105 26 11 2 30 6 42 8 20
4 21 2 11 -22 -6 -15 -14 -36 -18 -47 -43 -107 -106 -303 -104 -322 1 -7 -3
-13 -9 -13 -6 0 -8 -3 -5 -6 3 -3 -5 -43 -17 -90 -13 -46 -24 -87 -24 -89 -1
-3 -2 -7 -2 -10 -1 -3 -2 -13 -4 -22 -1 -16 -9 -57 -22 -118 -2 -11 -6 -36 -8
-55 -3 -19 -7 -44 -10 -55 -2 -11 -7 -47 -11 -80 -3 -33 -8 -73 -10 -90 -22
-167 -22 -608 0 -745 3 -14 7 -56 11 -95 4 -38 8 -72 11 -76 2 -3 5 -26 8 -50
3 -24 7 -53 9 -64 3 -11 8 -40 13 -65 9 -51 11 -59 14 -62 1 -2 3 -12 5 -23
16 -111 123 -448 196 -621 137 -326 341 -663 558 -924 25 -30 57 -68 71 -85
42 -50 311 -317 379 -375 94 -81 304 -238 397 -297 136 -87 319 -192 344 -198
3 -1 48 -22 100 -47 105 -50 216 -99 234 -103 6 -1 23 -7 37 -13 137 -56 398
-130 594 -168 11 -2 31 -6 45 -9 14 -2 39 -7 55 -11 17 -3 37 -6 45 -6 8 0 42
-4 75 -9 208 -30 440 -39 700 -25 72 3 144 8 160 10 17 3 71 10 120 17 89 12
115 16 125 19 3 1 8 2 12 1 4 0 38 6 76 14 88 18 116 24 150 30 15 3 34 8 42
11 8 3 49 15 90 25 90 24 304 96 342 115 15 8 30 14 33 14 3 0 20 6 38 14 19
7 45 17 58 21 44 14 399 198 399 206 0 5 6 9 13 9 11 0 264 160 299 189 7 6
63 50 123 97 61 48 117 94 126 103 9 9 47 43 84 76 38 33 82 75 100 93 29 32
36 34 107 37 42 2 103 8 135 14 32 6 72 13 90 16 18 3 42 9 55 14 13 5 25 9
28 9 9 1 34 9 85 28 28 10 52 19 55 19 43 9 224 104 315 164 39 25 74 48 79
50 5 2 16 10 25 17 9 7 43 35 76 61 145 116 293 262 275 273 -31 19 -81 -10
-182 -105 -57 -54 -113 -102 -125 -108 -13 -6 -23 -14 -23 -19 0 -4 -7 -8 -15
-8 -8 0 -15 -4 -15 -9 0 -26 -272 -165 -417 -212 -54 -17 -105 -34 -113 -37
-8 -3 -24 -6 -35 -8 -11 -1 -56 -9 -100 -17 -44 -8 -83 -13 -87 -11 -3 2 -18
0 -32 -6 -24 -9 -25 -8 -17 8 5 9 22 31 38 48 55 57 223 278 223 293 0 6 4 11
9 11 8 0 126 183 195 303 41 71 152 297 167 340 7 20 17 37 23 37 5 0 7 2 4 6
-3 3 14 54 37 114 23 60 40 111 37 114 -3 4 1 6 8 6 7 0 11 3 7 6 -3 3 1 25
10 47 8 23 17 53 19 66 3 13 9 31 13 40 8 16 36 126 32 126 -1 0 2 13 8 28 6
15 13 42 16 60 3 18 12 59 20 92 8 34 16 81 19 105 3 25 8 56 11 70 3 14 8 52
11 85 2 33 6 65 9 72 23 68 24 664 0 777 -2 12 -6 48 -9 81 -3 33 -7 69 -9 80
-3 11 -8 43 -11 70 -15 111 -78 368 -130 525 -57 176 -95 273 -176 445 -15 33
-28 64 -28 69 0 5 -4 12 -9 15 -4 3 -28 44 -52 91 -24 47 -52 97 -62 112 -11
14 -19 31 -19 37 0 6 -5 11 -11 11 -5 0 -8 4 -5 9 4 5 3 11 -1 13 -5 1 -35 44
-67 93 -55 84 -156 224 -180 252 -6 6 -24 29 -41 50 -128 162 -301 336 -524
529 -59 50 -189 146 -296 217 -55 37 -105 70 -110 74 -6 5 -30 19 -55 32 -25
13 -52 29 -60 36 -13 10 -365 189 -365 185 0 -2 -47 16 -120 45 -163 65 -419
143 -530 161 -16 3 -37 7 -45 10 -8 3 -26 8 -40 10 -14 3 -47 9 -75 14 -27 5
-70 11 -95 15 -25 3 -55 7 -67 9 -22 5 -70 10 -193 22 -63 6 -477 13 -482 8z
m347 -74 c0 -1 34 -3 75 -5 90 -4 173 -12 295 -31 72 -11 93 -15 140 -24 28
-6 61 -12 75 -15 43 -8 164 -36 180 -42 8 -4 25 -8 37 -10 32 -5 265 -81 285
-93 10 -6 22 -10 27 -10 18 0 224 -90 346 -152 109 -54 383 -213 395 -228 3
-3 43 -33 90 -65 47 -33 93 -67 103 -75 10 -8 27 -22 37 -30 10 -8 35 -28 56
-45 101 -80 343 -315 436 -425 44 -52 58 -69 102 -121 10 -12 45 -59 77 -103
32 -45 62 -86 66 -91 36 -47 73 -105 73 -114 0 -6 4 -11 8 -11 5 0 16 -15 25
-32 9 -18 30 -55 47 -83 17 -27 33 -57 37 -65 3 -8 15 -27 25 -42 11 -16 17
-28 14 -28 -3 0 8 -23 24 -50 17 -28 30 -53 30 -55 0 -3 48 -112 80 -180 44
-94 154 -426 175 -525 2 -8 10 -45 19 -81 19 -81 56 -298 62 -359 2 -25 7 -72
11 -105 16 -135 8 -673 -11 -771 -2 -11 -8 -47 -12 -79 -4 -33 -8 -62 -9 -65
-1 -3 -5 -25 -9 -50 -24 -145 -71 -336 -118 -475 -16 -49 -31 -94 -33 -100 -2
-11 -2 -10 -57 -150 -85 -214 -261 -542 -370 -690 -4 -5 -36 -48 -69 -95 -34
-47 -66 -86 -71 -88 -4 -2 -8 -10 -8 -17 0 -7 -4 -15 -9 -17 -4 -1 -32 -32
-62 -68 -29 -36 -71 -85 -93 -108 l-41 -44 -95 5 c-308 17 -539 167 -660 430
-38 84 -93 249 -125 377 -25 101 -29 121 -40 193 -3 17 -10 55 -15 82 -11 58
-18 108 -25 171 -10 91 -15 130 -19 154 -3 14 -7 61 -11 105 -3 44 -8 98 -11
120 -4 36 -9 107 -18 280 -1 33 -1 63 1 67 12 23 313 -326 313 -362 0 -6 4
-10 8 -10 12 0 75 -141 88 -198 23 -104 24 -200 3 -303 -15 -75 -44 -109 -95
-109 -44 0 -58 -7 -67 -32 -5 -13 2 -22 22 -33 26 -13 32 -12 72 8 95 49 140
150 145 327 3 77 -1 133 -10 168 -8 28 -13 52 -11 52 7 0 -57 147 -91 209 -20
36 -56 92 -81 125 -45 59 -206 226 -268 277 -16 14 -31 29 -32 35 -17 106 -24
1239 -9 1559 5 99 9 203 10 230 1 28 5 55 9 62 4 6 3 14 -3 18 -6 4 -8 10 -5
14 2 5 7 41 10 82 7 93 14 175 20 214 8 52 16 128 20 176 2 25 7 83 10 130 26
318 3 456 -88 521 -26 19 -46 23 -110 25 -43 1 -98 -4 -122 -12 -24 -7 -46
-10 -49 -7 -4 3 -6 0 -6 -7 0 -7 -4 -10 -9 -7 -22 14 -302 -148 -396 -229 -71
-62 -135 -126 -135 -135 0 -5 -4 -10 -9 -10 -12 0 -119 -142 -163 -215 -43
-71 -99 -185 -91 -185 3 0 1 -6 -4 -12 -9 -11 -33 -74 -39 -100 -1 -5 -2 -9
-4 -10 -4 -6 -16 -64 -36 -168 -17 -90 -22 -240 -12 -330 7 -57 34 -183 45
-210 3 -8 7 -19 8 -25 1 -10 7 -27 25 -70 5 -11 11 -29 15 -39 6 -19 5 -19
-15 -1 -11 10 -20 14 -20 9 0 -5 -4 -4 -8 1 -8 11 -69 55 -76 55 -3 0 -27 13
-53 28 -63 37 -213 113 -288 145 -126 54 -343 131 -401 141 -13 3 -27 7 -32
10 -5 3 -19 7 -33 10 -13 3 -85 22 -159 42 -74 20 -153 40 -175 45 -22 4 -49
10 -60 13 -11 2 -47 11 -80 19 -33 9 -107 25 -165 37 -58 12 -114 24 -125 26
-11 3 -29 6 -40 8 -11 2 -40 7 -65 11 -25 5 -53 10 -62 11 -10 1 -19 2 -20 4
-2 1 -16 3 -33 5 -16 2 -46 6 -65 10 -19 3 -46 8 -60 9 -14 2 -59 9 -101 15
-73 11 -119 17 -204 25 -22 2 -62 7 -90 10 -48 5 -127 12 -271 23 -90 7 -916
11 -928 5 -15 -8 -116 -8 -116 0 0 28 239 428 261 436 5 2 9 8 9 13 0 6 5 15
10 22 12 14 56 73 85 113 11 15 25 32 30 38 6 6 30 36 55 66 82 99 94 113 220
239 148 149 174 172 305 277 135 108 212 164 224 164 5 0 11 4 13 8 6 16 227
147 373 223 145 75 395 184 395 172 0 -3 6 -1 13 4 41 33 441 144 607 169 19
3 60 9 90 14 131 22 184 28 315 35 49 3 89 6 91 7 3 3 309 1 309 -2z m1318
-1035 c55 -26 78 -84 80 -202 1 -91 -5 -173 -18 -233 -3 -14 -10 -50 -16 -80
-6 -30 -20 -87 -30 -127 -11 -40 -22 -83 -24 -95 -5 -25 -56 -191 -85 -278
-43 -127 -92 -267 -105 -295 -7 -16 -16 -39 -19 -50 -6 -20 -14 -20 -222 -20
-119 0 -218 -3 -221 -7 -2 -5 3 -8 11 -8 32 0 152 -65 194 -104 58 -55 86
-116 84 -185 -2 -61 -66 -210 -225 -525 -129 -256 -166 -318 -186 -312 -9 2
-50 10 -91 16 -41 6 -88 14 -105 17 -38 6 -71 10 -170 19 -44 3 -91 8 -105 10
-34 4 -336 4 -385 0 -22 -2 -76 -7 -120 -11 -184 -17 -351 -48 -503 -92 -48
-14 -94 -26 -102 -28 -17 -3 -136 -48 -187 -71 l-33 -14 -40 86 c-22 47 -40
87 -40 89 0 2 -17 41 -39 87 -21 45 -64 139 -96 208 -32 69 -67 145 -78 170
-12 25 -20 48 -19 53 1 4 -3 7 -10 7 -6 0 -9 3 -6 6 4 3 -11 43 -33 88 -42 86
-49 112 -53 186 -6 109 75 246 176 296 37 19 31 19 -467 19 -277 0 -507 -3
-511 -7 -4 -5 0 -8 10 -8 18 0 99 -48 104 -61 2 -5 8 -9 14 -9 14 0 88 -75 88
-89 0 -6 4 -11 8 -11 19 0 135 -219 245 -460 61 -135 135 -298 169 -370 22
-47 41 -89 42 -95 3 -13 40 -89 46 -95 3 -3 6 -9 7 -15 1 -5 24 -57 51 -115
67 -144 68 -146 40 -161 -66 -34 -249 -165 -326 -231 -101 -89 -287 -283 -357
-372 -16 -21 -38 -48 -49 -60 -10 -11 -32 -41 -49 -66 -32 -46 -43 -61 -64
-85 -7 -7 -13 -16 -13 -20 0 -6 -40 -65 -50 -75 -3 -3 -27 -41 -53 -85 -89
-153 -156 -321 -181 -452 -12 -66 -14 -232 -2 -283 33 -149 84 -242 182 -334
56 -52 59 -54 150 -103 58 -30 173 -69 224 -76 14 -1 30 -5 35 -9 13 -8 309
-3 355 7 317 62 608 205 911 447 56 44 103 77 106 74 3 -2 36 -74 75 -158 38
-84 83 -181 99 -216 16 -35 29 -68 29 -73 0 -5 5 -9 12 -9 6 0 9 -3 5 -6 -3
-4 8 -34 25 -68 l31 -61 23 50 c13 28 40 86 60 130 107 230 135 293 148 325 3
8 10 22 15 30 5 8 16 31 24 50 9 19 31 69 50 110 19 41 44 95 55 120 11 25 39
86 62 135 23 50 74 160 112 245 39 85 93 202 119 259 27 57 49 105 49 106 0 2
25 55 55 120 30 64 55 118 55 119 0 2 23 53 50 112 28 60 55 118 60 129 101
222 223 455 239 455 10 -1 179 -46 251 -68 85 -26 208 -75 293 -118 79 -40
177 -100 178 -111 1 -5 3 -30 4 -58 15 -246 26 -389 40 -500 2 -22 7 -67 10
-100 3 -33 8 -69 10 -80 2 -11 7 -42 10 -70 8 -73 11 -96 35 -245 12 -74 23
-146 25 -160 14 -95 44 -222 64 -272 6 -16 9 -28 7 -28 -10 0 79 -212 120
-287 40 -74 165 -223 187 -223 4 0 18 -9 30 -21 34 -32 174 -94 257 -114 78
-19 98 -23 168 -30 74 -8 74 -6 -34 -105 -22 -19 -66 -58 -99 -85 -33 -28 -62
-52 -65 -55 -45 -45 -334 -243 -444 -305 -36 -20 -68 -41 -72 -46 -3 -5 -14
-9 -24 -9 -10 0 -20 -3 -22 -7 -11 -27 -535 -252 -586 -253 -7 0 -25 -6 -40
-14 -15 -8 -41 -17 -57 -20 -17 -3 -82 -19 -145 -36 -63 -17 -130 -33 -149
-36 -18 -3 -43 -8 -55 -10 -29 -7 -191 -31 -251 -39 -234 -27 -613 -28 -850 0
-16 2 -30 4 -30 5 0 1 -16 3 -35 5 -19 1 -66 8 -105 15 -38 7 -80 13 -92 14
-13 0 -23 3 -23 6 0 3 -8 6 -17 7 -38 4 -87 13 -141 28 -60 17 -87 24 -112 30
-8 2 -16 4 -17 4 -2 1 -5 1 -8 1 -3 0 -69 23 -147 51 -79 27 -150 51 -158 53
-61 16 -424 192 -518 252 -29 19 -55 34 -58 34 -3 0 -38 23 -79 50 -41 28 -78
50 -81 49 -4 0 -10 3 -13 8 -3 5 -51 42 -106 83 -55 40 -102 76 -105 79 -3 3
-32 29 -65 56 -176 147 -352 327 -507 520 -69 85 -233 322 -287 415 -84 145
-208 397 -236 480 -1 3 -7 19 -14 35 -15 36 -87 236 -90 250 -1 6 -11 42 -23
80 -11 39 -22 79 -24 90 -2 11 -12 56 -23 100 -11 44 -22 94 -25 110 -2 17
-12 68 -20 115 -8 47 -18 110 -21 140 -3 30 -8 84 -12 120 -9 90 -10 549 0
640 13 136 23 211 32 260 2 9 6 33 9 51 11 65 17 95 41 194 28 119 53 214 62
235 3 8 5 19 4 24 -1 4 2 13 7 20 5 6 15 32 22 59 7 26 17 50 21 53 5 3 9 13
9 22 0 9 15 53 33 98 l32 82 77 12 c42 6 85 12 95 14 17 3 70 11 153 21 19 3
64 7 100 10 36 4 85 8 110 10 300 27 865 22 1165 -11 33 -4 71 -8 85 -9 39 -3
164 -19 233 -30 41 -6 96 -14 152 -21 28 -3 53 -8 56 -10 4 -2 24 -6 45 -9 22
-3 50 -7 64 -10 14 -3 39 -8 55 -10 28 -5 50 -9 93 -19 41 -10 109 -25 132
-30 14 -2 61 -14 105 -26 44 -12 85 -23 90 -24 56 -14 116 -32 200 -58 55 -18
102 -32 105 -33 3 0 19 -5 35 -12 17 -6 83 -32 148 -57 173 -68 432 -203 485
-253 7 -7 17 -13 21 -13 4 0 16 -8 27 -18 58 -52 88 -72 109 -72 37 0 39 30 6
113 -28 69 -57 168 -67 227 -3 14 -7 36 -10 50 -5 20 -16 194 -15 235 0 30 11
143 16 165 3 14 8 41 11 60 23 148 112 376 201 517 35 57 108 150 157 201 59
61 216 182 264 203 17 8 32 17 32 21 0 5 3 7 8 6 4 -1 21 4 37 11 17 7 41 18
55 23 14 6 43 13 65 15 22 2 42 6 44 9 7 6 47 -3 84 -21z m12 -1184 c-15 -26
-23 -861 -12 -1226 8 -229 17 -416 22 -432 7 -21 -7 -15 -90 37 -108 68 -295
159 -437 211 l-117 44 23 40 c13 22 33 56 44 75 12 19 31 55 43 80 12 25 29
53 37 63 8 9 12 17 7 17 -4 0 -3 6 3 13 18 22 194 380 193 394 0 2 15 34 34
73 19 38 35 74 35 79 0 7 17 49 61 146 4 11 10 27 11 35 2 8 6 17 9 20 3 3 29
68 57 145 68 189 71 195 77 195 4 0 4 -4 0 -9z m-1300 -1435 c72 -3 144 -8
160 -11 17 -3 57 -7 90 -10 33 -4 69 -7 80 -9 11 -1 45 -6 76 -10 l56 -8 -62
-106 c-89 -155 -184 -311 -216 -359 -16 -23 -29 -46 -29 -51 0 -6 -3 -12 -7
-14 -5 -1 -47 -63 -96 -136 -72 -109 -136 -202 -184 -267 -60 -81 -129 -171
-133 -175 -4 -3 -19 -23 -36 -45 -16 -21 -36 -46 -44 -55 -8 -9 -33 -38 -55
-64 -51 -62 -108 -127 -165 -188 l-46 -49 -31 68 c-27 58 -229 501 -318 698
-15 33 -41 89 -57 125 -17 36 -50 110 -75 165 -25 55 -50 109 -56 120 -6 11
-12 22 -12 25 -3 10 -24 58 -49 110 -14 29 -26 59 -26 66 0 6 33 22 73 34 88
27 95 29 105 31 4 1 18 5 31 10 32 13 194 49 290 65 18 3 43 8 55 10 11 3 44
7 71 10 28 2 68 7 90 9 22 3 99 8 170 11 72 3 131 7 132 8 1 1 21 1 45 0 24
-1 102 -5 173 -8z m-1595 -377 c0 -8 19 -51 80 -184 15 -33 42 -91 59 -130 18
-38 38 -83 46 -100 8 -16 30 -66 50 -110 56 -123 193 -421 232 -505 19 -41 73
-160 121 -264 l85 -188 -44 -39 c-108 -95 -291 -223 -404 -283 -27 -15 -57
-31 -65 -35 -132 -72 -389 -159 -523 -177 -23 -3 -60 -9 -82 -13 -75 -13 -252
-3 -337 19 -373 100 -499 431 -329 860 54 134 192 366 292 490 16 19 37 46 48
60 60 76 96 116 201 220 63 63 130 126 148 140 19 14 39 30 45 35 55 49 249
179 332 223 20 11 45 0 45 -19z m1699 -505 c-23 -49 -43 -95 -45 -103 -1 -8
-9 -18 -16 -22 -7 -5 -9 -9 -5 -9 5 0 -1 -17 -12 -37 -11 -21 -30 -60 -42 -88
-12 -27 -42 -93 -67 -145 -24 -52 -57 -122 -72 -155 -15 -33 -41 -89 -57 -125
-17 -36 -41 -87 -53 -115 -13 -27 -47 -101 -76 -163 -30 -63 -54 -117 -54
-122 0 -5 -4 -12 -10 -15 -7 -4 -90 152 -90 171 0 2 -13 32 -30 66 -16 34 -30
66 -30 71 0 4 12 21 28 36 15 15 47 51 72 80 25 29 60 69 78 89 18 20 60 71
94 112 33 41 70 86 81 100 12 14 57 72 100 130 43 58 83 112 90 120 7 9 30 43
52 75 22 33 44 65 50 71 5 6 19 27 30 47 37 70 26 21 -16 -69z"/>
</g>
</svg>
